<svg width="1090" height="940" viewBox="0 0 1090 940" fill="none" xmlns="http://www.w3.org/2000/svg">
<path d="M38.3646 939.413C34.6904 938.308 30.3654 934.606 28.5206 930.987C26.9772 927.96 26.8448 926.005 26.8448 906.241C26.8448 893.159 27.1936 883.856 27.7382 882.411C28.8363 879.496 33.1362 874.9 36.5253 873.018C38.8722 871.715 75.6177 871.6 556.643 871.402C918.561 871.252 1075.23 871.456 1077.54 872.079C1081.53 873.152 1087.32 878.173 1088.88 881.907C1089.73 883.946 1090.01 890.003 1090 906.336C1089.99 927.269 1089.92 928.175 1088.1 931.389C1087.06 933.223 1084.57 935.876 1082.57 937.285L1078.93 939.847L559.83 939.987C274.327 940.063 39.6678 939.805 38.3646 939.413ZM54.9756 917.856C55.708 917.575 56.3071 916.585 56.3071 915.656C56.3071 914.188 55.9287 914.039 53.4113 914.511C49.7445 915.2 46.479 914.398 45.8066 912.644C44.9428 910.392 46.3056 902.425 47.8896 900.468C49.0702 899.009 50.2905 898.63 53.8915 898.604C57.8395 898.575 58.4116 898.358 58.4116 896.887C58.4116 895.442 57.7641 895.165 53.8627 894.943C45.2138 894.45 42.0989 897.791 41.3425 908.37C40.9695 913.587 41.1039 914.181 43.1131 916.191C44.867 917.946 46.0955 918.367 49.4658 918.367C51.7638 918.367 54.2433 918.137 54.9756 917.856ZM73.8624 917.167C77.0668 915.508 78.3609 912.293 78.8324 904.818C79.2223 898.637 79.1603 898.371 76.9173 896.605C73.7863 894.141 67.5025 894.098 64.425 896.521C59.6691 900.264 58.2139 913.622 62.2094 916.86C64.4841 918.703 70.5833 918.863 73.8624 917.167ZM65.7771 914.44C64.3171 913.85 64.4199 905.566 65.9321 901.944C67.2458 898.797 70.6847 897.254 73.0625 898.743C75.7046 900.398 74.837 910.655 71.7976 913.696C70.5281 914.966 67.8892 915.292 65.7771 914.44ZM85.2272 916.893C85.4544 916.082 86.3132 911.628 87.1356 906.995C87.958 902.362 88.7708 899.226 88.9419 900.027C89.1131 900.828 89.7003 904.429 90.247 908.03L91.241 914.576L97.2567 915.081L100.502 907.046C102.286 902.627 103.879 899.144 104.04 899.305C104.201 899.467 103.948 902.969 103.476 907.088C102.219 918.07 102.261 918.533 104.499 918.215C106.116 917.985 106.477 917.268 106.964 913.313C107.278 910.764 107.657 905.647 107.806 901.941L108.077 895.202H101.471L94.608 911.951L92.0827 895.202L89.2399 894.93C87.6763 894.78 86.0492 895.006 85.6241 895.431C84.7198 896.336 80.8019 917.327 81.4215 917.947C82.4021 918.928 84.8466 918.251 85.2272 916.893ZM115.232 917.55C115.232 916.352 117.734 898.905 118.234 896.617C118.609 894.897 118.38 894.695 116.323 894.932C114.015 895.198 113.968 895.322 112.567 904.889C110.602 918.304 110.605 918.367 113.127 918.367C114.285 918.367 115.232 917.999 115.232 917.55ZM133.615 916.893C135.893 914.956 136.752 910.039 135.183 907.912C134.53 907.027 132.331 905.653 130.296 904.86C127.655 903.83 126.515 902.871 126.312 901.511C125.93 898.952 127.42 898.178 132.76 898.163C136.57 898.154 137.199 897.929 136.961 896.676C136.735 895.49 135.636 895.152 131.344 894.949C125.073 894.651 122.392 895.977 121.556 899.787C120.639 903.961 121.756 905.731 126.679 907.91C129.969 909.366 131.226 910.382 131.226 911.588C131.226 913.957 128.224 915.258 123.884 914.768C121.079 914.452 120.037 914.658 119.676 915.6C118.94 917.518 121.04 918.34 126.713 918.354C130.427 918.364 132.369 917.952 133.615 916.893ZM143.011 917.94C143.011 917.346 145.412 900.856 145.984 897.518C146.411 895.028 146.262 894.781 144.327 894.781C141.879 894.781 141.94 894.594 140.089 907.652C138.473 919.053 138.42 918.367 140.906 918.367C142.064 918.367 143.011 918.175 143.011 917.94ZM161.852 917.562C164.786 916.446 166.427 913.608 167.501 907.796C168.591 901.898 167.492 897.013 164.746 895.542C163.745 895.006 160.946 894.76 158.32 894.978C152.254 895.481 150.299 897.644 148.962 905.324C147.82 911.887 148.73 915.932 151.666 917.351C154.041 918.498 159.114 918.604 161.852 917.562ZM154.122 913.987C152.845 912.708 152.895 906.22 154.212 902.38C156.057 896.999 162.454 896.708 163.074 901.976C163.55 906.011 162.336 911.663 160.627 913.373C158.797 915.205 155.637 915.503 154.122 913.987ZM174.455 916.893C174.682 916.082 175.328 912.011 175.89 907.846L176.913 900.273L179.738 907.846C183.245 917.247 183.613 917.886 185.68 918.197C188.313 918.593 189.004 916.917 190.471 906.574C192.199 894.393 192.221 894.781 189.809 894.781C187.868 894.781 187.74 895.146 186.706 903.609C186.113 908.465 185.428 912.237 185.183 911.992C184.938 911.747 183.363 907.869 181.684 903.374C179.17 896.644 178.294 895.152 176.718 894.92C175.665 894.765 174.483 894.959 174.09 895.352C173.309 896.134 170.789 911.768 170.789 915.834C170.789 917.776 171.169 918.367 172.416 918.367C173.311 918.367 174.228 917.704 174.455 916.893ZM214.462 917.433C218.035 916.187 219.656 912.77 220.221 905.29C220.659 899.502 220.56 899.021 218.504 896.964C216.55 895.009 215.673 894.781 210.105 894.781H203.888L202.49 904.678C200.413 919.375 200.122 918.367 206.439 918.367C209.38 918.367 212.99 917.947 214.462 917.433ZM205.749 912.681C206.4 908.957 207.814 899.471 207.821 898.782C207.831 897.844 212.741 898.017 214.617 899.022C216.44 899.998 216.704 903.155 215.425 908.68C214.473 912.791 211.942 914.997 208.176 914.997C205.55 914.997 205.374 914.829 205.749 912.681ZM236.238 917.836C237.352 917.537 238.132 916.675 238.132 915.741C238.132 914.362 237.465 914.155 233.03 914.155H227.929L228.451 907.837L233.291 907.585C237.443 907.368 238.132 907.098 238.132 905.689C238.132 904.256 237.53 904.047 233.412 904.047C229.454 904.047 228.774 903.832 229.203 902.714C229.484 901.981 229.714 900.862 229.714 900.227C229.714 899.4 231.202 899.002 234.975 898.822C239.7 898.596 240.264 898.378 240.505 896.676C240.762 894.866 240.508 894.78 234.916 894.78C227.246 894.78 225.719 895.979 224.72 902.783C222.861 915.447 222.864 914.881 224.655 916.673C226.382 918.402 232.018 918.968 236.238 917.836ZM263.878 917.312C264.184 917.006 264.211 916.17 263.937 915.455C263.562 914.478 262.151 914.155 258.263 914.155C253.307 914.155 253.109 914.075 253.595 912.26C253.874 911.217 254.108 909.72 254.114 908.932C254.124 907.781 255.076 907.451 258.966 907.248C262.595 907.058 263.806 906.679 263.806 905.732C263.806 904.799 262.634 904.401 259.335 904.211C255.029 903.964 254.874 903.872 255.126 901.684C255.375 899.529 255.666 899.392 260.86 898.992C265.63 898.625 266.331 898.355 266.331 896.887C266.331 895.385 265.689 895.175 260.434 894.959C252.134 894.616 251.747 895.033 250.096 906.089L248.733 915.211L250.786 916.874C252.467 918.236 253.791 918.477 258.08 918.204C260.962 918.02 263.571 917.619 263.878 917.312ZM281.459 917.168C283.862 916.163 284.539 915.253 285.641 911.539C287.666 904.716 287.391 899.352 284.889 896.848C283.068 895.026 282.084 894.78 276.606 894.78H270.389L268.991 904.678C266.91 919.404 266.599 918.367 273.093 918.367C276.117 918.367 279.882 917.827 281.459 917.168ZM272.25 912.681C272.901 908.957 274.315 899.47 274.322 898.782C274.331 897.843 279.241 898.017 281.118 899.022C282.941 899.998 283.205 903.155 281.926 908.679C280.974 912.791 278.443 914.997 274.677 914.997C272.051 914.997 271.874 914.829 272.25 912.681ZM303.275 917.561C306.153 916.466 307.596 913.27 308.728 905.486C310.143 895.762 310.049 894.78 307.698 894.78C305.832 894.78 305.65 895.246 304.658 902.572C303.275 912.78 302.145 914.956 298.212 914.984C294.673 915.01 294.239 913.226 295.553 904.051C296.217 899.407 296.575 895.422 296.348 895.194C296.12 894.967 295.1 894.78 294.08 894.78C292.381 894.78 292.146 895.403 291.274 902.208C289.861 913.234 289.982 914.607 292.54 916.621C294.938 918.508 299.69 918.924 303.275 917.561ZM326.029 917.856C326.761 917.575 327.36 916.585 327.36 915.656C327.36 914.188 326.982 914.039 324.465 914.511C320.579 915.241 317.434 914.349 316.796 912.338C315.979 909.76 317.261 902.546 318.896 900.525C320.085 899.056 321.208 898.718 324.638 898.796C327.755 898.868 329.035 898.547 329.396 897.604C329.668 896.894 329.678 895.968 329.419 895.547C328.745 894.456 320.268 894.597 317.761 895.739C314.842 897.071 312.873 901.705 312.397 908.37C312.024 913.586 312.158 914.18 314.167 916.191C315.921 917.946 317.15 918.367 320.52 918.367C322.818 918.367 325.297 918.137 326.029 917.856ZM333.947 915.006C335.337 911.694 335.422 911.645 339.777 911.637L344.196 911.627V914.602C344.196 917.636 345.603 918.976 347.874 918.104C348.831 917.736 348.74 916.043 347.334 908.116C345.094 895.487 344.8 894.78 341.795 894.78C340.451 894.78 338.952 895.261 338.464 895.85C337.639 896.844 328.202 917.225 328.202 918.011C328.202 918.206 329.177 918.366 330.369 918.366C332.1 918.366 332.82 917.69 333.947 915.006ZM337.462 907.524C337.462 907.12 338.368 904.751 339.475 902.259L341.489 897.729L342.049 901.098C342.357 902.952 342.784 905.321 342.998 906.363C343.342 908.043 343.05 908.259 340.424 908.259C338.795 908.259 337.462 907.928 337.462 907.524ZM365.593 917.856C366.325 917.575 366.924 916.604 366.924 915.698C366.924 914.231 366.523 914.112 363.232 914.606C356.403 915.631 354.484 912.424 356.842 903.927C358.013 899.707 359.643 898.602 364.393 898.809C367.745 898.955 368.484 898.713 368.84 897.352C369.44 895.057 368.908 894.781 363.892 894.781C355.086 894.781 352.586 897.617 351.951 908.329C351.585 914.499 351.651 914.78 353.89 916.542C356.199 918.36 362.452 919.062 365.593 917.856ZM375.073 912.049C375.62 908.806 376.332 903.594 376.655 900.467C377.239 894.823 377.227 894.781 375.165 894.781C373.152 894.781 373.042 895.093 371.688 904.678C369.814 917.936 369.837 918.549 372.185 918.215C373.828 917.981 374.211 917.162 375.073 912.049ZM393.261 917.453C396.501 915.976 398.302 911.951 398.733 905.228C399.098 899.536 398.979 898.983 396.952 896.955C395.217 895.219 393.962 894.781 390.72 894.781C383.315 894.781 380.132 899.004 380.033 908.961C379.978 914.475 380.185 915.312 381.959 916.753C384.197 918.571 390.019 918.931 393.261 917.453ZM385.767 914.353C384.113 913.262 383.722 910.373 384.594 905.676C385.813 899.114 389.534 896.451 393.465 899.328C394.951 900.415 395 900.938 394.11 906.141C393.579 909.241 392.49 912.502 391.689 913.388C390.208 915.025 387.465 915.472 385.767 914.353ZM405.261 917.314C405.483 916.735 406.144 912.674 406.731 908.289L407.798 900.318L411.189 909.132C414.43 917.558 414.688 917.946 417.057 917.946C419.47 917.946 419.562 917.789 420.529 912.049C421.076 908.806 421.788 903.594 422.111 900.467C422.667 895.095 422.603 894.781 420.964 894.781C418.924 894.781 418.722 895.371 417.39 905.236L416.377 912.744L412.905 903.973C409.576 895.561 409.331 895.202 406.909 895.202H404.383L402.965 904.468C401.025 917.144 401.041 918.367 403.147 918.367C404.088 918.367 405.039 917.893 405.261 917.314ZM444.999 917.836C446.113 917.537 446.893 916.675 446.893 915.741C446.893 914.364 446.228 914.155 441.843 914.155C436.444 914.155 436.119 913.806 437.323 909.311C437.769 907.644 438.374 907.416 442.362 907.416C446.332 907.416 446.893 907.208 446.893 905.732C446.893 904.271 446.332 904.047 442.684 904.047C438.569 904.047 438.476 903.991 438.476 901.52V898.992H443.947C449.222 898.992 449.419 898.917 449.419 896.887C449.419 894.844 449.244 894.781 443.619 894.781C435.868 894.781 434.659 895.855 433.482 903.787C432.033 913.55 432.255 916.604 434.477 917.498C436.686 918.387 442.276 918.566 444.999 917.836ZM454.769 916.05C455.008 914.776 455.431 911.839 455.71 909.522C456.898 899.647 456.93 899.641 460.252 908.653C463.465 917.366 465.17 919.464 467.727 917.85C468.827 917.156 469.558 914.487 470.611 907.324C472.498 894.483 472.509 894.781 470.147 894.781C467.911 894.781 467.552 895.843 466.582 905.309C466.271 908.347 465.777 910.982 465.483 911.163C465.189 911.345 463.516 907.733 461.765 903.137C458.964 895.785 458.34 894.781 456.575 894.781C455.471 894.781 454.32 895.184 454.016 895.676C453.26 896.9 450.364 916.947 450.829 917.735C451.782 919.351 454.358 918.25 454.769 916.05ZM483.721 914.958L485.059 911.55L489.336 911.8C493.521 912.044 493.621 912.112 494.033 914.997C494.355 917.255 494.898 918.009 496.348 918.215C497.848 918.428 498.239 918.077 498.229 916.53C498.213 913.984 495.052 896.591 494.42 895.568C493.708 894.416 489.329 894.607 488.337 895.833C487.512 896.854 478.039 917.236 478.039 917.991C478.039 918.198 479.017 918.367 480.211 918.367C481.968 918.367 482.639 917.715 483.721 914.958ZM487.35 907.206C487.438 905.43 491.359 897.645 491.488 898.992C491.554 899.687 491.904 902.057 492.266 904.257L492.924 908.259H490.112C488.395 908.259 487.319 907.848 487.35 907.206ZM514.025 917.836C515.139 917.537 515.919 916.675 515.919 915.741C515.919 914.363 515.253 914.155 510.83 914.155H505.742L506.187 911.417C506.432 909.912 507.017 906.431 507.488 903.681C508.816 895.92 508.668 894.781 506.333 894.781C504.094 894.781 504.103 894.749 502.337 907.754C501.335 915.132 501.349 915.277 503.24 916.809C505.176 918.378 510.215 918.858 514.025 917.836ZM524.364 917.735C524.38 917.388 524.939 913.313 525.61 908.68C526.281 904.047 526.837 899.993 526.846 899.673C526.856 899.352 528.472 898.973 530.44 898.83C533.414 898.615 534.063 898.252 534.286 896.676C534.551 894.808 534.419 894.781 525.237 894.781H515.919V896.887C515.919 898.782 516.256 898.992 519.286 898.992C521.138 898.992 522.647 899.277 522.638 899.624C522.629 899.972 522.069 903.857 521.391 908.259C520.713 912.66 520.152 916.735 520.143 917.314C520.128 918.417 524.317 918.835 524.364 917.735ZM535.701 914.997C537.163 911.753 537.368 911.628 541.217 911.628C545.143 911.628 545.228 911.684 545.958 914.787C546.506 917.119 547.189 918.016 548.567 918.215C549.835 918.398 550.432 918.048 550.432 917.122C550.432 914.403 546.913 896.026 546.263 895.351C545.896 894.97 544.377 894.78 542.887 894.93C540.293 895.19 539.967 895.664 535.204 906.095C532.468 912.086 530.23 917.298 530.23 917.677C530.23 918.057 531.119 918.367 532.206 918.367C533.698 918.367 534.555 917.541 535.701 914.997ZM540.762 903.521C541.914 900.915 542.9 898.546 542.953 898.256C543.116 897.368 544.44 904.344 544.491 906.363C544.533 907.976 544.102 908.259 541.604 908.259H538.669L540.762 903.521ZM568.894 911.417C570.752 898.214 570.366 899.113 574.298 898.826C577.185 898.615 577.837 898.243 578.059 896.676C578.324 894.808 578.192 894.781 569.01 894.781H559.692V896.887C559.692 898.78 560.03 898.992 563.038 898.992C566.22 898.992 566.365 899.106 566.002 901.309C565.143 906.515 563.901 915.826 563.901 917.054C563.901 917.876 564.652 918.367 565.908 918.367C567.783 918.367 567.981 917.906 568.894 911.417ZM591.469 917.836C592.583 917.537 593.363 916.675 593.363 915.741C593.363 914.362 592.697 914.155 588.262 914.155H583.16L583.682 907.837L588.523 907.585C592.674 907.368 593.363 907.098 593.363 905.689C593.363 904.26 592.762 904.047 588.733 904.047C583.915 904.047 583.809 903.966 584.624 900.926C585.058 899.304 585.779 899.036 590.295 898.82C594.929 898.597 595.495 898.374 595.736 896.676C595.993 894.866 595.739 894.78 590.148 894.78C581.707 894.78 580.98 895.572 579.355 906.543L578.05 915.357L579.907 916.862C581.788 918.386 587.594 918.875 591.469 917.836ZM611.3 917.891C612.055 917.601 612.366 916.759 612.098 915.731C611.721 914.288 611.197 914.123 608.466 914.585C603.433 915.436 601.781 914.067 601.781 909.044C601.781 906.729 602.33 903.521 603.001 901.914C604.253 898.915 604.513 898.809 611.041 898.645C613.401 898.586 613.987 898.236 613.987 896.887C613.987 895.414 613.343 895.171 608.885 894.955C602.371 894.64 599.836 896.414 598.012 902.561C595.776 910.096 596.685 916.042 600.296 917.494C602.451 918.36 609.423 918.612 611.3 917.891ZM619.756 915.629C620.023 914.124 620.494 910.807 620.802 908.259C621.11 905.711 621.607 903.16 621.906 902.591C622.206 902.023 623.538 904.486 624.867 908.067C627.926 916.305 629.196 918.367 631.213 918.367C633.477 918.367 633.751 917.664 635.087 908.442C635.739 903.94 636.484 899.024 636.742 897.519C637.167 895.043 637.013 894.781 635.136 894.781C632.847 894.781 632.585 895.498 631.595 904.468C630.898 910.79 630.016 912.718 629.123 909.87C628.773 908.752 627.369 904.9 626.003 901.309C623.845 895.635 623.252 894.781 621.471 894.781C618.871 894.781 618.14 896.549 616.945 905.732C616.432 909.67 615.799 914.124 615.537 915.629C615.106 918.115 615.256 918.367 617.166 918.367C618.88 918.367 619.361 917.859 619.756 915.629ZM653.067 917.136C654.503 916.393 655.99 914.546 656.818 912.474C658.243 908.91 658.794 901.414 657.85 898.437C657.125 896.151 653.897 894.781 649.237 894.781C646.184 894.781 644.955 895.25 643.07 897.136C640.777 899.431 638.819 905.561 638.819 910.448C638.819 913.311 640.993 917.311 642.806 917.784C645.988 918.614 650.797 918.311 653.067 917.136ZM644.88 913.987C643.603 912.708 643.653 906.221 644.97 902.38C646.123 899.018 649.7 897.171 652.122 898.689C654.916 900.44 654.125 910.512 650.942 913.697C649.392 915.248 646.289 915.396 644.88 913.987ZM673.122 917.836C674.236 917.537 675.016 916.675 675.016 915.742C675.016 914.38 674.359 914.155 670.386 914.155C664.851 914.155 664.967 914.935 667.909 897.458C668.357 894.799 668.263 894.673 666.026 894.931C663.746 895.194 663.641 895.426 662.683 902.362C661.206 913.06 661.281 916.444 663.02 917.457C664.658 918.412 670.2 918.62 673.122 917.836ZM691.335 917.561C697.018 915.398 699.419 899.62 694.619 895.976C693.791 895.348 691.096 894.822 688.63 894.807C684.823 894.785 683.79 895.136 681.792 897.136C679.613 899.316 677.541 905.518 677.541 909.859C677.541 912.822 679.461 916.825 681.224 917.537C683.669 918.525 688.769 918.538 691.335 917.561ZM683.602 913.986C682.325 912.708 682.375 906.22 683.692 902.38C685.537 896.999 691.934 896.708 692.554 901.976C693.03 906.011 691.816 911.663 690.107 913.373C688.277 915.205 685.117 915.503 683.602 913.986ZM710.33 917.124C712.447 916.029 712.788 916.029 713.208 917.124C713.47 917.807 714.085 918.367 714.574 918.367C715.797 918.367 716.77 915.47 717.474 909.732C718.059 904.964 718.035 904.889 715.954 904.889C714.092 904.889 713.773 905.343 713.268 908.71C712.812 911.754 712.213 912.78 710.324 913.758C705.828 916.084 703.79 913.261 704.851 906.178C705.737 900.265 707.575 898.62 713.149 898.75C716.611 898.832 717.943 898.531 718.306 897.587C719.154 895.374 717.99 894.78 712.804 894.78C703.654 894.78 701.153 897.535 700.47 908.366C700.108 914.098 700.258 914.986 701.851 916.58C703.941 918.671 706.965 918.865 710.33 917.124ZM724.681 917.94C724.681 917.336 727.087 900.823 727.666 897.457C728.124 894.794 728.033 894.672 725.783 894.93C723.428 895.201 723.412 895.245 722.016 905.31C720.128 918.92 720.104 918.367 722.576 918.367C723.734 918.367 724.681 918.175 724.681 917.94ZM732.951 914.974C734.356 911.595 734.378 911.582 738.57 911.815C742.68 912.044 742.789 912.119 743.2 914.988C743.617 917.901 745.902 919.437 747.404 917.814C748.068 917.096 744.763 897.473 743.684 895.724C742.895 894.448 738.564 894.525 737.498 895.833C736.832 896.652 730.103 911.066 727.47 917.314C727.179 918.005 727.802 918.367 729.283 918.367C731.124 918.367 731.8 917.741 732.951 914.974ZM736.466 907.524C736.466 907.12 737.364 904.753 738.462 902.264L740.457 897.739L741.048 901.524C741.373 903.606 741.827 905.973 742.056 906.784C742.396 907.99 741.926 908.258 739.469 908.258C737.817 908.258 736.466 907.928 736.466 907.524ZM765.536 914.365C765.926 911.538 767.423 908.327 770.638 903.423C773.14 899.605 775.188 896.099 775.188 895.631C775.188 895.163 774.277 894.78 773.163 894.78C771.227 894.78 769.354 897.185 765.497 904.625C764.629 906.3 764.371 905.936 762.661 900.624C761.013 895.503 760.526 894.78 758.724 894.78C757.594 894.78 756.668 895.001 756.668 895.269C756.668 895.538 757.827 899.044 759.244 903.06C761.333 908.982 761.716 911.118 761.269 914.364C760.738 918.231 760.792 918.367 762.851 918.367C764.756 918.367 765.042 917.94 765.536 914.365ZM796.933 915.964C797.198 914.091 797.03 914.014 793.84 914.554C788.608 915.438 786.973 914.126 786.973 909.044C786.973 903.903 788.861 899.04 790.928 898.86C791.762 898.788 793.959 898.693 795.811 898.65C798.591 898.585 799.178 898.277 799.178 896.886C799.178 895.423 798.532 895.168 794.258 894.947C786.267 894.532 783.12 897.865 782.201 907.714C781.408 916.211 783.517 918.445 792.023 918.122C796.183 917.963 796.682 917.744 796.933 915.964ZM812.857 917.836C813.971 917.537 814.751 916.674 814.751 915.741C814.751 914.38 814.095 914.155 810.122 914.155C804.587 914.155 804.703 914.935 807.645 897.457C808.093 894.798 807.999 894.672 805.762 894.93C803.481 895.193 803.377 895.425 802.419 902.362C800.821 913.931 800.955 916.604 803.177 917.498C805.398 918.391 810.165 918.558 812.857 917.836ZM831.465 917.166C834.615 915.536 835.942 912.333 836.435 905.168C836.823 899.525 836.707 898.986 834.678 896.954C832.943 895.218 831.688 894.78 828.445 894.78C821.508 894.78 818.42 898.447 817.556 907.714C817.007 913.598 817.938 916.321 820.909 917.519C823.754 918.665 828.9 918.494 831.465 917.166ZM823.38 914.458C821.921 913.843 822.023 905.564 823.535 901.943C824.853 898.785 828.306 897.247 830.665 898.767C832.716 900.088 832.369 909.333 830.157 912.311C828.547 914.478 825.625 915.403 823.38 914.458ZM855.229 915.96C856.896 913.899 858.18 908.629 859.024 900.386L859.598 894.78H857.377C856.156 894.78 855.157 895.132 855.157 895.562C855.157 898.277 853.253 909.917 852.492 911.849C851.474 914.437 848.109 915.749 845.977 914.389C844.47 913.427 844.348 910.441 845.426 900.888L846.115 894.78H844.029C842.056 894.78 841.891 895.157 840.973 901.73C839.457 912.59 839.636 914.583 842.32 916.703C845.442 919.17 852.983 918.735 855.229 915.96ZM877.471 915.659C879.776 912.977 881.634 905.042 880.947 900.809C880.192 896.153 878.698 895.251 871.18 894.909L864.525 894.607L864.068 897.431C863.817 898.985 863.208 903.288 862.716 906.995C862.224 910.701 861.608 914.816 861.348 916.14L860.876 918.546L868.191 918.246C874.923 917.969 875.662 917.763 877.471 915.659ZM866.163 913.523C866.198 912.712 866.673 909.016 867.22 905.31C868.117 899.224 868.404 898.544 870.188 898.291C871.275 898.136 873.072 898.238 874.183 898.517C875.997 898.973 876.201 899.478 876.201 903.516C876.201 911.759 874.08 914.997 868.681 914.997C866.76 914.997 866.116 914.62 866.163 913.523ZM905.174 917.855C905.906 917.574 906.506 916.613 906.506 915.72C906.506 914.267 906.08 914.153 902.445 914.636C896.672 915.402 895.176 913.79 895.904 907.591C896.199 905.081 896.833 902.29 897.315 901.39C898.488 899.196 901.55 898.135 905.062 898.705C907.474 899.096 908.019 898.891 908.396 897.447C909.024 895.044 908.529 894.78 903.377 894.78C894.781 894.78 892.226 897.709 891.556 908.329C891.166 914.51 891.228 914.776 893.471 916.542C895.78 918.359 902.034 919.061 905.174 917.855ZM924 917.052C927.241 914.781 928.684 910.871 928.751 904.186C928.806 898.672 928.599 897.835 926.825 896.394C924.425 894.444 918.422 894.234 915.045 895.981C911.841 897.639 910.547 900.854 910.075 908.329C909.685 914.51 909.748 914.776 911.991 916.542C914.802 918.755 921.184 919.026 924 917.052ZM914.912 913.72C913.456 911.964 914.494 903.415 916.496 900.677C918.127 898.447 921.288 897.62 923.265 898.907C925.834 900.578 923.911 912.497 920.804 914.161C918.547 915.37 916.13 915.189 914.912 913.72ZM936.464 909.101C937.311 904.004 938.231 899.834 938.509 899.834C938.786 899.834 939.498 903.267 940.092 907.462L941.171 915.09L944.181 914.833C947.111 914.583 947.277 914.374 950.44 906.995L953.689 899.413L953.157 906.573C952.264 918.582 952.203 917.92 954.229 918.208C955.742 918.424 956.155 917.969 956.52 915.681C957.487 909.614 958.601 896.151 958.19 895.486C957.513 894.389 952.266 894.656 951.34 895.833C950.885 896.412 949.256 899.995 947.721 903.794C946.186 907.593 944.663 910.536 944.337 910.334C944.01 910.132 943.47 907.421 943.137 904.31C942.278 896.282 941.566 894.78 938.617 894.78C937.273 894.78 935.81 895.254 935.364 895.833C934.919 896.412 933.897 900.677 933.092 905.31C932.287 909.943 931.422 914.776 931.168 916.05C930.763 918.084 930.964 918.367 932.815 918.367C934.845 918.367 934.982 918.018 936.464 909.101ZM965.155 916.682C965.245 915.987 965.534 914.078 965.799 912.44L966.28 909.462H971.005C974.933 909.462 975.996 909.132 977.314 907.503C979.332 905.009 979.492 898.022 977.576 896.104C975.878 894.405 963.759 894.169 963.725 895.833C963.712 896.413 963.019 901.53 962.182 907.206C961.346 912.882 960.867 917.731 961.117 917.982C962.015 918.88 964.995 917.921 965.155 916.682ZM967.127 902.993C967.146 899.045 968.113 897.983 971.404 898.298C974.476 898.592 975.249 900.017 974.327 903.692C973.893 905.422 973.308 905.731 970.465 905.731C967.242 905.731 967.114 905.626 967.127 902.993ZM996.648 915.959C998.315 913.899 999.599 908.629 1000.44 900.386C1001.01 894.84 1001 894.78 998.952 894.78C996.971 894.78 996.83 895.152 995.539 903.795C994.127 913.254 993.166 914.997 989.363 914.997C985.769 914.997 985.337 913.252 986.654 904.051C987.319 899.407 987.677 895.422 987.449 895.194C987.222 894.966 986.202 894.78 985.182 894.78C983.483 894.78 983.248 895.403 982.376 902.208C980.952 913.317 981.072 914.597 983.739 916.703C986.861 919.17 994.402 918.735 996.648 915.959ZM1012.04 916.892C1012.28 916.082 1012.94 911.722 1013.51 907.205L1014.54 898.992H1018.19C1021.51 898.992 1021.83 898.808 1021.83 896.886V894.78H1013.08C1005.88 894.78 1004.24 895.016 1003.82 896.113C1002.88 898.573 1003.29 898.992 1006.68 898.992C1010.76 898.992 1010.74 898.745 1007.9 915.629C1007.49 918.105 1007.64 918.367 1009.53 918.367C1010.79 918.367 1011.78 917.785 1012.04 916.892ZM1027.86 908.258C1029.82 894.877 1029.82 894.78 1027.34 894.78C1025.02 894.78 1025.08 894.581 1023.16 908.679C1022.53 913.312 1022.2 917.409 1022.42 917.783C1022.65 918.157 1023.64 918.347 1024.63 918.204C1026.26 917.971 1026.58 916.991 1027.86 908.258ZM1035.6 915.629C1035.86 914.123 1036.33 910.807 1036.64 908.258C1037.54 900.841 1038.18 900.796 1040.74 907.978C1042.03 911.607 1043.62 915.429 1044.26 916.471C1045.5 918.464 1048.27 919.009 1049.23 917.448C1049.7 916.697 1052.93 897.595 1052.97 895.412C1052.97 895.065 1052.07 894.78 1050.96 894.78C1048.79 894.78 1048.57 895.428 1047.42 904.889C1046.7 910.865 1045.83 912.631 1044.96 909.87C1044.61 908.752 1043.21 904.899 1041.84 901.309C1039.68 895.635 1039.09 894.78 1037.31 894.78C1034.71 894.78 1033.98 896.549 1032.78 905.731C1032.27 909.669 1031.64 914.123 1031.38 915.629C1030.95 918.114 1031.1 918.367 1033.01 918.367C1034.72 918.367 1035.2 917.858 1035.6 915.629ZM1065.23 917.13C1067.35 915.523 1068.13 915.532 1068.13 917.165C1068.13 917.966 1068.7 918.379 1069.58 918.21C1070.99 917.938 1071.19 917.278 1072.59 908.047C1073.03 905.163 1072.9 904.889 1071.11 904.889C1068.97 904.889 1068.13 906.295 1068.13 909.879C1068.13 912.949 1063.17 915.978 1061.04 914.208C1059.49 912.928 1059.29 907.715 1060.59 903.024C1061.58 899.443 1064.52 898.14 1070.09 898.807C1073.09 899.166 1073.3 899.053 1073.04 897.197C1072.78 895.351 1072.33 895.183 1067.05 894.952C1061.73 894.719 1061.18 894.867 1058.93 897.111C1054.66 901.39 1053.43 912.999 1056.86 916.786C1058.58 918.686 1062.94 918.865 1065.23 917.13ZM162.405 892.236C165.864 890.471 166.165 890.017 165.046 888.255C164.553 887.477 163.463 887.879 160.847 889.804C158.904 891.234 157.528 892.749 157.788 893.171C158.432 894.213 158.598 894.18 162.405 892.236ZM393.911 892.227C396.81 890.747 397.143 890.296 396.384 888.878C395.536 887.293 395.4 887.314 392.191 889.535C389.047 891.712 387.78 893.937 389.686 893.937C390.167 893.937 392.068 893.167 393.911 892.227ZM728.939 892.227C731.875 890.728 732.178 890.309 731.389 888.833C730.509 887.188 730.414 887.203 727.182 889.49C724.046 891.71 722.81 893.937 724.714 893.937C725.196 893.937 727.097 893.167 728.939 892.227ZM731.193 862.417C725.586 860.11 722.156 858.013 722.156 856.893C722.156 856.462 722.58 855.177 723.099 854.037C724.009 852.038 724.157 852.005 727.276 853.106C729.054 853.734 732.796 854.698 735.592 855.249C738.387 855.799 740.675 856.341 740.675 856.454C740.675 857.378 737.096 864.449 736.637 864.434C736.311 864.424 733.862 863.515 731.193 862.417ZM720.051 849.846C714.096 847.095 712.342 841.932 713.748 831.292C715.652 816.876 720.424 811.859 732.253 811.835C743.639 811.813 747.421 815.413 747.396 826.253C747.37 837.35 744.259 845.734 739.034 848.788C735.365 850.932 723.799 851.577 720.051 849.846ZM732.295 842.532C734.886 841.144 738.212 826.515 736.887 822.336C735.579 818.214 728.203 818.698 726.447 823.022C723.842 829.434 723.127 840.035 725.162 842.071C726.675 843.585 729.935 843.796 732.295 842.532ZM761.999 850.102C760.533 849.649 758.355 848.116 757.159 846.694C755.246 844.418 754.992 843.383 755.048 838.065C755.082 834.742 755.749 827.663 756.53 822.335L757.95 812.648L763.228 812.397C768.349 812.153 768.493 812.203 768.084 814.081C767.065 818.752 765.086 834.514 765.086 837.963C765.086 841.15 765.408 841.893 767.129 842.677C769.842 843.914 773.181 842.986 774.774 840.553C775.506 839.436 776.865 832.867 777.909 825.404L779.753 812.227H790.022L788.03 825.915C785 846.724 782.604 850.14 770.674 850.661C767.369 850.806 763.466 850.554 761.999 850.102ZM1021.03 849.849C1016.65 848.19 1014.81 845.119 1014.41 838.8C1013.99 832.201 1016.13 821.857 1018.72 818.017C1021.85 813.376 1025.49 811.814 1033.19 811.814C1041.13 811.814 1044.97 813.539 1047.29 818.152C1051.3 826.098 1046.91 844.858 1040.11 848.88C1036.73 850.875 1025.28 851.457 1021.03 849.849ZM1033.97 841.426C1036.28 839.118 1037.82 832.793 1037.82 825.643C1037.82 821.012 1037.65 820.543 1035.66 819.786C1032.76 818.683 1029.59 819.586 1028.04 821.958C1026.44 824.404 1024.19 836.981 1024.87 839.697C1025.87 843.682 1030.79 844.616 1033.97 841.426ZM797.095 848.47C794.449 845.822 794.337 843.614 796.174 830.349C797.986 817.268 799.059 814.396 802.644 813.032C804.963 812.15 821.387 811.919 823.521 812.738C824.872 813.257 825.272 816.05 824.342 818.476C823.929 819.552 822.397 819.808 816.374 819.808C808.251 819.808 807.175 820.442 807.175 825.228C807.175 827.368 807.242 827.389 813.91 827.389H820.644V834.128H805.669L805.352 837.446C805.178 839.271 805.17 841.166 805.333 841.658C805.514 842.199 808.591 842.552 813.137 842.552H820.643V850.133H809.7C799.926 850.133 798.58 849.956 797.095 848.47ZM829.572 842.342C830.17 838.056 831.33 829.554 832.149 823.449L833.639 812.347L839.978 812.077C850.635 811.622 857.437 812.545 859.801 814.768C862.478 817.285 863.2 821.363 861.769 825.888C860.884 828.687 859.937 829.834 857.545 831.004L854.461 832.513L856.376 834.43C857.726 835.781 858.468 837.821 858.891 841.345C859.221 844.094 859.693 847.196 859.94 848.238C860.371 850.054 860.163 850.134 854.967 850.134H849.544L848.002 836.235L840.232 835.73L839.646 841.037C838.612 850.398 838.796 850.134 833.312 850.134H828.484L829.572 842.342ZM850.682 827.094C851.23 826.561 851.921 825.138 852.216 823.931C852.985 820.788 850.839 818.966 846.368 818.966C842.842 818.966 842.737 819.046 842.229 822.125C841.12 828.838 841.228 829.038 845.687 828.523C847.886 828.269 850.134 827.626 850.682 827.094ZM870.692 848.066C868.133 845.506 868.065 842.203 870.266 827.416C871.724 817.62 872.006 816.755 874.449 814.57C877.002 812.288 877.326 812.227 886.947 812.24C892.38 812.246 897.326 812.571 897.938 812.959C898.718 813.454 898.879 814.586 898.476 816.737L897.9 819.808H890.521C882.493 819.808 881.825 820.144 880.861 824.652L880.276 827.39H887.498C895.278 827.39 895.453 827.516 894.19 832.233C893.715 834.007 893.231 834.129 886.664 834.129H879.645L879.093 837.071C878.131 842.203 878.642 842.552 887.118 842.552H894.721V850.134H883.739C873.202 850.134 872.674 850.05 870.692 848.066ZM912.105 836.481C913.161 828.933 914.038 822.093 914.053 821.282C914.079 820.038 913.288 819.808 908.982 819.808H903.883L904.401 812.648L920.702 812.419C935.373 812.212 936.952 812.325 936.486 813.541C936.201 814.284 935.968 815.998 935.968 817.35V819.808H924.522L920.395 849.712L910.186 850.206L912.105 836.481ZM932.541 848.238C935.297 841.19 947.167 814.196 947.9 813.313C948.92 812.083 960.085 811.799 961.909 812.956C962.598 813.394 963.943 819.677 965.467 829.58C966.814 838.336 968.105 846.543 968.336 847.817C968.755 850.132 968.751 850.134 963.741 850.134C958.289 850.134 958.236 850.079 957.664 843.816L957.433 841.289H945.707L942.293 850.134H937.047C931.948 850.134 931.821 850.08 932.541 848.238ZM956.443 831.602C956.016 825.521 955.141 819.809 954.637 819.814C953.806 819.82 948.694 833.105 949.292 833.703C949.569 833.981 951.325 834.095 953.194 833.958C956.237 833.733 956.576 833.488 956.443 831.602ZM974.69 849.404C974.69 848.039 979.883 812.65 980.118 812.412C980.247 812.282 984.858 812.145 990.366 812.106C1005.24 812.001 1008.36 813.747 1008.36 822.166C1008.36 826.991 1006.32 830.205 1002.17 831.92C999.672 832.953 999.626 833.048 1001.36 833.612C1003.53 834.314 1004.69 837.496 1005.49 844.869L1006.05 850.134H995.855L995.351 845.29C994.489 837.006 994.075 836.269 990.113 835.979C986.195 835.692 986.255 835.579 985.149 845.29L984.597 850.134H979.643C976.919 850.134 974.69 849.805 974.69 849.404ZM997.207 826.714C998.727 824.792 998.546 820.098 996.928 819.477C996.196 819.196 994.12 818.966 992.314 818.966C988.814 818.966 988.923 818.809 987.825 825.439C987.483 827.501 987.714 828.208 988.822 828.498C991.275 829.139 996.102 828.112 997.207 826.714ZM651.039 846.924C648.603 846.349 648.497 846.117 647.535 839.177C646.989 835.242 646.509 830.616 646.469 828.896C646.399 825.908 646.553 825.729 649.973 824.833C657.307 822.914 667.316 817.361 672.364 812.411C676.468 808.387 682.555 799.692 682.584 797.813C682.587 797.53 680.38 797.098 677.678 796.853C672.063 796.343 668.03 794.537 666.173 791.702C665.468 790.625 658.811 772.532 651.379 751.496C643.947 730.46 634.861 704.754 631.188 694.372C627.515 683.99 624.509 675.177 624.509 674.787C624.509 674.398 633.138 674.079 643.684 674.079H662.858L674.832 715.144C681.417 737.73 687.39 759.053 688.105 762.527C688.819 766.002 689.583 769.698 689.802 770.74C690.038 771.864 690.822 772.636 691.728 772.636C692.974 772.636 693.761 770.726 695.977 762.317C698.033 754.519 711.127 709.104 720.994 675.553C721.39 674.204 723.073 674.079 740.731 674.079C751.349 674.079 760.036 674.2 760.036 674.347C760.036 675.844 713.803 804.964 711.603 809.611C702.698 828.423 688.751 841.308 672.854 845.412C666.943 846.938 654.698 847.787 651.039 846.924ZM883.718 808.326C883.132 807.23 882.811 806.198 883.005 806.032C883.198 805.867 886 803.974 889.231 801.825L895.105 797.919L896.561 800.651C897.362 802.153 898.031 803.761 898.047 804.225C898.063 804.688 895.086 806.248 891.43 807.693L884.784 810.318L883.718 808.326ZM104.624 798.416C76.7931 793.88 61.0415 781.127 53.5347 757.052C49.2858 743.425 48.3812 735.351 48.3443 710.722C48.3083 686.712 48.8703 680.817 52.5343 666.77C59.2406 641.061 73.1899 628.164 100.475 622.446C107.762 620.919 111.8 620.678 129.963 620.686C145.4 620.692 153.587 621.078 160.688 622.13C169.588 623.45 182.225 626.276 183.088 627.139C183.286 627.338 182.586 636.18 181.53 646.789L179.612 666.076L148.895 666.498C116.602 666.94 116.47 666.956 112.084 670.953C107.001 675.585 104.657 691.311 105.36 716.059C105.987 738.155 107.681 745.243 113.503 750.146C117.855 753.81 123.35 754.396 147.219 753.742C159.025 753.418 171.905 752.858 175.84 752.496C179.775 752.135 183.055 751.874 183.129 751.918C183.202 751.962 184.162 760.852 185.262 771.673L187.261 791.348L185.128 792.16C181.124 793.685 171.221 796.172 163.634 797.558C153.34 799.439 114.378 800.006 104.624 798.416ZM235.186 797.109C221.046 794.004 211.247 785.831 205.949 772.725C204.042 768.008 204.039 767.948 203.793 712.828C203.58 665.299 203.728 656.835 204.859 651.756C207.819 638.464 217.021 628.609 230.556 624.235C235.768 622.551 237.584 622.475 268.857 622.62C298.921 622.759 318.089 623.472 330.25 624.902C334.423 625.393 334.873 625.637 334.552 627.231C334.354 628.211 333.739 636.866 333.186 646.464L332.179 663.917L263.246 664.392L260.79 667.143C258.367 669.858 258.334 670.026 258.334 679.989V690.084H323.152V726.306H258.334V738.154C258.334 744.671 258.722 750.728 259.196 751.613C261.124 755.22 262.325 755.349 297.898 755.789L331.99 756.21L332.957 769.688C333.489 777.101 334.073 785.7 334.256 788.797L334.588 794.428L330.764 794.926C314.362 797.066 242.464 798.708 235.186 797.109ZM339.987 796.256C339.987 795.466 348.236 765.984 374.055 674.5C386.468 630.517 387.059 629.049 393.783 625.497C397.466 623.551 397.711 623.537 427.532 623.537C457.214 623.537 457.615 623.559 461.215 625.465C468.33 629.23 468.727 630.152 479.27 667.361C506.277 762.684 515.612 796.249 515.224 796.637C514.989 796.872 502.564 797.064 487.612 797.064H460.427L459.615 793.906C459.168 792.168 457.185 783.634 455.207 774.94L451.611 759.133L403.685 759.579L395.074 796.643L367.531 796.866C349.808 797.009 339.987 796.791 339.987 796.256ZM442.684 720.88C442.684 720.676 440.592 711.536 438.035 700.568C435.478 689.601 432.994 677.732 432.514 674.194C431.063 663.486 431.3 663.97 427.516 663.97C425.673 663.97 424.165 664.322 424.165 664.752C424.165 669.32 415.087 713.602 412.798 720.198C412.515 721.015 415.825 721.251 427.559 721.251C435.878 721.251 442.684 721.084 442.684 720.88ZM550.432 663.97H501.609V623.537H653.129V663.97H604.306V797.064H550.432V663.97ZM826.969 792.825C795.629 789.235 778.685 776.68 770.734 751.155C766.939 738.972 765.77 729.779 765.328 708.616C764.882 687.236 765.974 674.47 769.401 661.022C776.625 632.669 793.797 618.881 826.641 615.06C837.627 613.782 868.42 614.489 879.668 616.278C888.591 617.697 899.002 620.092 899.973 620.949C900.533 621.443 897.762 653.967 896.751 658.772L896.338 660.735L866.698 660.457C835.205 660.162 834.308 660.255 830.034 664.237C824.675 669.23 823.151 676.163 822.575 698.169C821.748 729.783 824.262 740.928 833.245 745.469C836.824 747.279 837.915 747.365 857.229 747.363C868.358 747.362 882.537 746.973 888.738 746.5C894.938 746.027 900.119 745.747 900.251 745.879C900.382 746.011 901.345 754.745 902.389 765.288C903.664 778.16 904.01 784.736 903.44 785.306C902.156 786.592 884.351 790.876 875.781 791.962C865.629 793.248 835.341 793.783 826.969 792.825ZM981.003 793.224C979.614 793.034 975.258 792.446 971.322 791.917C962.63 790.748 950.788 787 944.445 783.411C928.474 774.374 918.641 754.992 915.74 726.828C914.373 713.558 915.082 681.433 916.97 671.13C922.406 641.462 934.687 625.759 958.054 618.597C969.473 615.097 981.04 614.026 1002.05 614.52C1013.01 614.778 1024.92 615.538 1029.51 616.271C1038.3 617.678 1048.84 620.091 1049.77 620.915C1050.29 621.372 1047.78 650.684 1046.6 657.93L1046.14 660.734L1016.52 660.457C987.272 660.183 986.847 660.204 983.107 662.063C974.882 666.151 972.961 672.633 972.385 698.245C971.633 731.699 974.314 742.303 984.511 746.2C987.787 747.452 991.173 747.543 1015.74 747.041C1030.9 746.731 1044.83 746.266 1046.71 746.006L1050.12 745.535L1052.08 765.041C1053.32 777.428 1053.74 784.84 1053.23 785.351C1051.98 786.606 1034.02 790.899 1025.62 791.951C1017.86 792.922 985.547 793.844 981.003 793.224ZM978.328 591.659C969.912 589.501 962.798 587.503 962.518 587.217C962.055 586.746 991.534 558.537 993.007 558.042C993.352 557.926 995.102 565.789 996.896 575.516C1000.43 594.671 1000.37 595.821 995.842 595.66C994.625 595.616 986.744 593.816 978.328 591.659ZM940.177 581.449C937.63 580.623 909.031 571.954 876.622 562.184C844.214 552.413 807.925 541.467 795.981 537.858L774.264 531.299L697.542 451.695H530.838L524.145 458.093C515.723 466.146 511.862 467.942 502.887 467.982C497.231 468.008 495.277 467.624 490.827 465.613C468.266 455.419 470.287 419.274 493.802 412.434C497.086 411.478 500.591 411.173 505.398 411.426C515.058 411.933 518.588 414.153 528.337 425.851L530.233 428.125L604.308 428.1C645.049 428.087 678.383 427.876 678.383 427.635C678.383 427.393 676.007 424.464 673.104 421.124C670.2 417.785 661.613 406.902 654.02 396.941C639.986 378.529 631.671 368.37 623.513 359.667L618.973 354.823H479.059C397.656 354.823 339.145 355.137 339.145 355.574C339.145 357.528 331.069 365.051 326.689 367.178C322.536 369.194 320.867 369.508 314.313 369.511C308.257 369.514 305.906 369.136 302.595 367.628C295.902 364.58 291.548 360.444 288.492 354.231C286.118 349.406 285.734 347.743 285.726 342.249C285.707 330.086 291.097 321.228 301.691 316.009C314.939 309.482 331.479 314.486 339.278 327.381L342.092 332.031L629.531 332.079L637.625 341.556C642.077 346.768 652.406 359.177 660.578 369.131C715.549 436.09 722.795 444.374 763.523 486.834L775.817 499.651L781.736 487.677C788.72 473.549 798.423 457.828 807.36 446.161C815.356 435.722 828.905 420.598 835.249 415.029L840.044 410.82L820.542 387.244C809.817 374.277 784.957 344.24 765.3 320.496L729.559 277.325H500.076L498.151 281.304C495.542 286.697 489.889 292.155 484.097 294.871C480.079 296.756 478.142 297.121 472.147 297.121C466.175 297.121 464.209 296.753 460.261 294.901C447.119 288.734 440.411 274.938 443.892 261.236C445.554 254.696 449.346 248.886 454.542 244.921C459.957 240.788 464.733 239.228 472.147 239.17C482.548 239.088 488.874 242.736 498.15 254.164C499.248 255.517 506.84 255.582 620.32 255.221L741.319 254.836L798.448 323.412C829.869 361.128 856.197 392.789 856.955 393.769C858.327 395.544 858.354 395.534 864.794 390.683C875.266 382.796 890.141 373.606 902.095 367.638L913.258 362.066L910.04 358.655C908.27 356.779 900.873 348.944 893.602 341.244L880.381 327.244L876.744 328.553C873.424 329.747 872.607 329.738 867.362 328.443C852.554 324.786 843.666 313.484 844.385 299.227C844.796 291.083 847.861 284.674 854.057 279.008C859.935 273.631 865.023 271.929 873.569 272.48C881.557 272.995 886.643 275.158 892.287 280.441C900.415 288.049 903.306 298.321 900.264 308.791C899.113 312.754 899.058 313.862 899.951 315.115C900.546 315.95 910.314 326.558 921.657 338.688C933 350.819 942.562 361.401 942.906 362.205C943.639 363.92 988.158 541.381 988.158 542.588C988.158 544.128 962.492 569.238 953.827 576.174C949.066 579.986 945.089 583.07 944.989 583.028C944.889 582.985 942.723 582.274 940.177 581.449ZM878.02 533.615C879.672 531.878 884.721 525.718 889.242 519.927C899.087 507.314 908.596 497.407 918.29 489.662C925.036 484.274 937.259 475.792 943.333 472.286C944.838 471.417 946.069 470.472 946.069 470.185C946.069 469.601 926.062 387.26 925.347 384.902C924.725 382.853 923.603 383.237 908.567 390.637C862.789 413.168 823.106 453.849 799.628 502.318C796.866 508.019 794.747 512.825 794.92 512.998C795.423 513.502 872.281 536.624 873.716 536.702C874.432 536.742 876.369 535.353 878.02 533.615ZM394.282 550.522C383.883 548.19 377.559 543.569 373.519 535.349C370.958 530.139 370.714 528.975 370.737 522.045C370.766 513.086 372.665 508.247 378.405 502.499C383.958 496.939 389.661 494.437 397.809 493.988C404.155 493.638 405.126 493.81 410.015 496.148C415.907 498.967 418.465 501.147 422.541 506.827L425.292 510.661H675.858V534.247H423.454L422.534 537.037C421.606 539.851 417.165 544.606 413.157 547.078C408.246 550.106 399.526 551.697 394.282 550.522ZM117.336 530.914C101.368 528.048 91.1468 524.719 77.7725 518.029C41.658 499.962 15.0567 466.218 4.56284 425.161C0.75661 410.269 -0.413875 399.129 0.123359 382.909C1.25853 348.636 13.2573 319.047 35.6921 295.198C49.1532 280.889 62.7126 271.299 81.7579 262.619C87.6537 259.932 92.8485 257.286 93.3018 256.74C93.7551 256.193 94.714 248.74 95.4327 240.178C96.8292 223.54 98.9318 213.759 103.443 202.915C118.782 166.044 155.02 137.292 196.043 129.444C213.218 126.158 236.879 127.967 252.196 133.737L257.742 135.825L258.979 134.059C262.914 128.437 271.268 118.798 278.778 111.216C294.609 95.2318 312.017 82.4786 332.575 71.8024C365.263 54.8275 396.269 47.1336 432.162 47.0911C448.702 47.072 458.777 47.9868 472.111 50.7205C479.111 52.1557 495.703 56.5162 496.431 57.1122C496.66 57.2997 493.051 69.8808 491.075 75.7789C490.813 76.5639 490.149 76.6028 488.396 75.9359C487.114 75.4483 482.565 74.1392 478.287 73.0269C428.631 60.1162 373.247 69.1208 327.272 97.5795C308.07 109.465 294.886 121.577 277.865 142.967C271.598 150.843 265.986 157.822 265.394 158.475C264.478 159.486 263.025 159.147 255.589 156.183C242.116 150.812 234.536 149.216 220.033 148.697C210.317 148.35 205.661 148.568 199.831 149.643C155.827 157.757 122.653 190.972 115.598 233.979C114.25 242.202 114.317 261.44 115.715 267.369C116.197 269.413 115.861 269.822 112.162 271.686C109.915 272.819 104.099 275.15 99.2379 276.867C81.3798 283.174 67.1074 291.98 54.4809 304.481C14.9117 343.657 8.36485 405.555 38.5303 455.287C56.5982 485.075 86.2332 505.009 121.445 511.061C127.891 512.169 144.443 512.346 241.609 512.346H354.297V532.562L240.026 532.493C134.016 532.429 125.145 532.315 117.336 530.914ZM435.608 210.441C435.034 203.362 435.454 199.488 437.011 197.511C437.666 196.679 458.48 196.457 536.015 196.456L634.19 196.454L667.779 163.393C696.396 135.226 701.816 130.251 704.396 129.789C709.397 128.894 742.658 127.383 757.38 127.383C770.93 127.383 771.144 127.355 771.631 125.492C774.014 116.373 785.43 101.2 793.443 96.5001C806.024 89.1223 823.371 87.8663 837.006 93.3461C846.869 97.3101 856.889 106.666 862.027 116.711C864.632 121.802 866.943 132.16 866.929 138.679C866.901 151.936 862.56 162.112 852.66 172.125C842.227 182.676 831.333 186.926 816.856 186.092C801.001 185.179 785.45 176.606 777.824 164.575C776.458 162.42 774.545 157.952 773.573 154.647C772.017 149.352 771.532 148.583 769.499 148.185C768.229 147.936 754.88 147.946 739.833 148.207L712.475 148.68L706.162 154.208C702.689 157.248 686.969 172.741 671.228 188.635L642.607 217.534L436.182 217.515L435.608 210.441ZM830.114 163.732C839.638 159.059 846.794 148.183 846.942 138.16C847.064 129.83 844.867 124.512 838.817 118.497C831.867 111.588 827.074 109.385 818.96 109.369C810.744 109.354 804.735 112.19 798.343 119.099C784.605 133.948 788.835 154.749 807.412 163.695C812.112 165.959 813.335 166.19 819.381 165.955C824.334 165.763 827.173 165.175 830.114 163.732ZM463.729 103.797H582.427L611.923 85.0544C639.554 67.4972 641.391 66.1785 640.966 64.2058C638.993 55.0561 638.683 52.018 639.1 45.9271C640.539 24.9213 654.443 6.98107 673.567 1.45723C679.52 -0.262187 691.474 -0.50428 697.744 0.967633C714.217 4.83507 728.032 17.657 733.206 33.8805C735.5 41.075 735.676 53.2934 733.588 60.4151C728.501 77.7642 715.185 91.1833 699.349 94.9187C684.896 98.3278 667.719 94.6516 655.234 85.477L651.867 83.0028L644.712 87.761C640.776 90.378 630.627 96.8573 622.157 102.159C613.688 107.461 603.281 114.358 599.032 117.486L591.306 123.172H463.729V103.797ZM699.836 73.9358C705.217 71.3016 708.981 67.2487 711.969 60.8747C713.827 56.9116 714.156 55.0537 714.139 48.622C714.123 42.2258 713.772 40.2933 711.9 36.2601C706.082 23.7328 694.411 17.6948 681.262 20.4106C674.363 21.8356 670.829 23.8262 666.352 28.8094C655.697 40.6693 657.696 61.7373 670.398 71.432C678.144 77.3441 690.695 78.4116 699.836 73.9358Z" fill="white"/>
<path d="M962.518 587.217C962.798 587.503 969.912 589.501 978.328 591.659C986.744 593.816 994.625 595.616 995.842 595.66C1000.37 595.821 1000.43 594.671 996.896 575.516C995.102 565.789 993.352 557.926 993.007 558.042C991.534 558.537 962.055 586.746 962.518 587.217Z" fill="white"/>
<path d="M373.519 535.349C377.559 543.569 383.883 548.19 394.282 550.522C399.526 551.697 408.246 550.106 413.157 547.078C417.165 544.606 421.606 539.851 422.534 537.037L423.454 534.247H675.858V510.661H425.292L422.541 506.827C418.465 501.147 415.907 498.967 410.015 496.148C405.126 493.81 404.155 493.638 397.809 493.988C389.661 494.437 383.958 496.939 378.405 502.499C372.665 508.247 370.766 513.086 370.737 522.045C370.714 528.975 370.958 530.139 373.519 535.349Z" fill="white"/>
<path d="M77.7725 518.029C91.1468 524.719 101.368 528.048 117.336 530.914C125.145 532.315 134.016 532.429 240.026 532.493L354.297 532.562V512.346H241.609C144.443 512.346 127.891 512.169 121.445 511.061C86.2332 505.009 56.5982 485.075 38.5303 455.287C8.36485 405.555 14.9117 343.657 54.4809 304.481C67.1074 291.98 81.3798 283.174 99.2379 276.867C104.099 275.15 109.915 272.819 112.162 271.686C115.861 269.822 116.197 269.413 115.715 267.369C114.317 261.44 114.25 242.202 115.598 233.979C122.653 190.972 155.827 157.757 199.831 149.643C205.661 148.568 210.317 148.35 220.033 148.697C234.536 149.216 242.116 150.812 255.589 156.183C263.025 159.147 264.478 159.486 265.394 158.475C265.986 157.822 271.598 150.843 277.865 142.967C294.886 121.577 308.07 109.465 327.272 97.5795C373.247 69.1208 428.631 60.1162 478.287 73.0269C482.565 74.1392 487.114 75.4483 488.396 75.9359C490.149 76.6028 490.813 76.5639 491.075 75.7789C493.051 69.8808 496.66 57.2997 496.431 57.1122C495.703 56.5162 479.111 52.1557 472.111 50.7205C458.777 47.9868 448.702 47.072 432.162 47.0911C396.269 47.1336 365.263 54.8275 332.575 71.8024C312.017 82.4786 294.609 95.2318 278.778 111.216C271.268 118.798 262.914 128.437 258.979 134.059L257.742 135.825L252.196 133.737C236.879 127.967 213.218 126.158 196.043 129.444C155.02 137.292 118.782 166.044 103.443 202.915C98.9318 213.759 96.8292 223.54 95.4327 240.178C94.714 248.74 93.7551 256.193 93.3018 256.74C92.8485 257.286 87.6537 259.932 81.7579 262.619C62.7126 271.299 49.1532 280.889 35.6921 295.198C13.2573 319.047 1.25853 348.636 0.123359 382.909C-0.413875 399.129 0.75661 410.269 4.56284 425.161C15.0567 466.218 41.658 499.962 77.7725 518.029Z" fill="white"/>
<path fill-rule="evenodd" clip-rule="evenodd" d="M940.177 581.449C937.63 580.623 909.031 571.954 876.622 562.184C844.214 552.413 807.925 541.467 795.981 537.858L774.264 531.299L697.542 451.695H530.838L524.145 458.093C515.723 466.146 511.862 467.942 502.887 467.982C497.231 468.008 495.277 467.624 490.827 465.613C468.266 455.419 470.287 419.274 493.802 412.434C497.086 411.478 500.591 411.173 505.398 411.426C515.058 411.933 518.588 414.153 528.337 425.851L530.233 428.125L604.308 428.1C645.049 428.087 678.383 427.876 678.383 427.635C678.383 427.393 676.007 424.464 673.104 421.124C670.2 417.785 661.613 406.902 654.02 396.941C639.986 378.529 631.671 368.37 623.513 359.667L618.973 354.823H479.059C397.656 354.823 339.145 355.137 339.145 355.574C339.145 357.528 331.069 365.051 326.689 367.178C322.536 369.194 320.867 369.508 314.313 369.511C308.257 369.514 305.906 369.136 302.595 367.628C295.902 364.58 291.548 360.444 288.492 354.231C286.118 349.406 285.734 347.743 285.726 342.249C285.707 330.086 291.097 321.228 301.691 316.009C314.939 309.482 331.479 314.486 339.278 327.381L342.092 332.031L629.531 332.079L637.625 341.556C642.077 346.768 652.406 359.177 660.578 369.131C715.549 436.09 722.795 444.374 763.523 486.834L775.817 499.651L781.736 487.677C788.72 473.549 798.423 457.828 807.36 446.161C815.356 435.722 828.905 420.598 835.249 415.029L840.044 410.82L820.542 387.244C809.817 374.277 784.957 344.24 765.3 320.496L729.559 277.325H500.076L498.151 281.304C495.542 286.697 489.889 292.155 484.097 294.871C480.079 296.756 478.142 297.121 472.147 297.121C466.175 297.121 464.209 296.753 460.261 294.901C447.119 288.734 440.411 274.938 443.892 261.236C445.554 254.696 449.346 248.886 454.542 244.921C459.957 240.788 464.733 239.228 472.147 239.17C482.548 239.088 488.874 242.736 498.15 254.164C499.248 255.517 506.84 255.582 620.32 255.221L741.319 254.836L798.448 323.412C829.869 361.128 856.197 392.789 856.955 393.769C858.327 395.544 858.354 395.534 864.794 390.683C875.266 382.796 890.141 373.606 902.095 367.638L913.258 362.066L910.04 358.655C908.27 356.779 900.873 348.944 893.602 341.244L880.381 327.244L876.744 328.553C873.424 329.747 872.607 329.738 867.362 328.443C852.554 324.786 843.666 313.484 844.385 299.227C844.796 291.083 847.861 284.674 854.057 279.008C859.935 273.631 865.023 271.929 873.569 272.48C881.557 272.995 886.643 275.158 892.287 280.441C900.415 288.049 903.306 298.321 900.264 308.791C899.113 312.754 899.058 313.862 899.951 315.115C900.546 315.95 910.314 326.558 921.657 338.688C933 350.819 942.562 361.401 942.906 362.205C943.639 363.92 988.158 541.381 988.158 542.588C988.158 544.128 962.492 569.238 953.827 576.174C949.066 579.986 945.089 583.07 944.989 583.028C944.889 582.985 942.723 582.274 940.177 581.449ZM889.242 519.927C884.721 525.718 879.672 531.878 878.02 533.615C876.369 535.353 874.432 536.742 873.716 536.702C872.281 536.624 795.423 513.502 794.92 512.998C794.747 512.825 796.866 508.019 799.628 502.318C823.106 453.849 862.789 413.168 908.567 390.637C923.603 383.237 924.725 382.853 925.347 384.902C926.062 387.26 946.069 469.601 946.069 470.185C946.069 470.472 944.838 471.417 943.333 472.286C937.259 475.792 925.036 484.274 918.29 489.662C908.596 497.407 899.087 507.314 889.242 519.927Z" fill="white"/>
<path fill-rule="evenodd" clip-rule="evenodd" d="M435.608 210.441C435.034 203.362 435.454 199.488 437.011 197.511C437.666 196.679 458.48 196.457 536.015 196.456L634.19 196.454L667.779 163.393C696.396 135.226 701.816 130.251 704.396 129.789C709.397 128.894 742.658 127.383 757.38 127.383C770.93 127.383 771.144 127.355 771.631 125.492C774.014 116.373 785.43 101.2 793.443 96.5001C806.024 89.1223 823.371 87.8663 837.006 93.3461C846.869 97.3101 856.889 106.666 862.027 116.711C864.632 121.802 866.943 132.16 866.929 138.679C866.901 151.936 862.56 162.112 852.66 172.125C842.227 182.676 831.333 186.926 816.856 186.092C801.001 185.179 785.45 176.606 777.824 164.575C776.458 162.42 774.545 157.952 773.573 154.647C772.017 149.352 771.532 148.583 769.499 148.185C768.229 147.936 754.88 147.946 739.833 148.207L712.475 148.68L706.162 154.208C702.689 157.248 686.969 172.741 671.228 188.635L642.607 217.534L436.182 217.515L435.608 210.441ZM846.942 138.16C846.794 148.183 839.638 159.059 830.114 163.732C827.173 165.175 824.334 165.763 819.381 165.955C813.335 166.19 812.112 165.959 807.412 163.695C788.835 154.749 784.605 133.948 798.343 119.099C804.735 112.19 810.744 109.354 818.96 109.369C827.074 109.385 831.867 111.588 838.817 118.497C844.867 124.512 847.064 129.83 846.942 138.16Z" fill="white"/>
<path fill-rule="evenodd" clip-rule="evenodd" d="M463.729 103.797H582.427L611.923 85.0544C639.554 67.4972 641.391 66.1785 640.966 64.2058C638.993 55.0561 638.683 52.018 639.1 45.9271C640.539 24.9213 654.443 6.98107 673.567 1.45723C679.52 -0.262187 691.474 -0.50428 697.744 0.967633C714.217 4.83507 728.032 17.657 733.206 33.8805C735.5 41.075 735.676 53.2934 733.588 60.4151C728.501 77.7642 715.185 91.1833 699.349 94.9187C684.896 98.3278 667.719 94.6516 655.234 85.477L651.867 83.0028L644.712 87.761C640.776 90.378 630.627 96.8573 622.157 102.159C613.688 107.461 603.281 114.358 599.032 117.486L591.306 123.172H463.729V103.797ZM711.969 60.8747C708.981 67.2487 705.217 71.3016 699.836 73.9358C690.695 78.4116 678.144 77.3441 670.398 71.432C657.696 61.7373 655.697 40.6693 666.352 28.8094C670.829 23.8262 674.363 21.8356 681.262 20.4106C694.411 17.6948 706.082 23.7328 711.9 36.2601C713.772 40.2933 714.123 42.2258 714.139 48.622C714.156 55.0537 713.827 56.9116 711.969 60.8747Z" fill="white"/>
<path d="M53.1688 756.678C60.6756 780.753 76.4272 793.506 104.258 798.042C114.012 799.632 152.974 799.065 163.268 797.184C170.855 795.798 180.758 793.311 184.762 791.786L186.895 790.974L184.896 771.299C183.796 760.478 182.836 751.588 182.763 751.544C182.689 751.5 179.409 751.761 175.474 752.122C171.539 752.484 158.66 753.044 146.854 753.368C122.984 754.022 117.489 753.436 113.137 749.772C107.315 744.869 105.621 737.781 104.994 715.685C104.291 690.937 106.635 675.211 111.718 670.579C116.104 666.582 116.236 666.566 148.529 666.124L179.246 665.702L181.165 646.415C182.22 635.806 182.921 626.964 182.722 626.765C181.859 625.902 169.222 623.076 160.322 621.756C153.221 620.704 145.034 620.318 129.597 620.312C111.434 620.304 107.396 620.545 100.109 622.072C72.824 627.79 58.8747 640.687 52.1684 666.396C48.5044 680.443 47.9424 686.338 47.9784 710.348C48.0153 734.977 48.9199 743.051 53.1688 756.678Z" fill="white"/>
<path d="M205.583 772.351C210.881 785.457 220.681 793.63 234.82 796.735C242.098 798.334 313.996 796.692 330.398 794.552L334.222 794.054L333.89 788.423C333.707 785.326 333.123 776.727 332.591 769.314L331.624 755.836L297.532 755.415C261.96 754.975 260.759 754.846 258.83 751.239C258.356 750.354 257.969 744.297 257.969 737.781V725.932H322.786V689.71H257.969V679.615C257.969 669.652 258.001 669.484 260.424 666.769L262.88 664.018L331.813 663.543L332.82 646.09C333.373 636.492 333.988 627.837 334.186 626.857C334.508 625.263 334.057 625.019 329.884 624.528C317.723 623.098 298.555 622.385 268.491 622.246C237.218 622.101 235.402 622.177 230.19 623.861C216.655 628.235 207.453 638.09 204.493 651.382C203.363 656.461 203.215 664.925 203.427 712.454C203.673 767.574 203.676 767.634 205.583 772.351Z" fill="white"/>
<path d="M550.066 663.596V796.69H603.94V663.596H652.764V623.163H501.243V663.596H550.066Z" fill="white"/>
<path d="M770.368 750.781C778.319 776.306 795.263 788.861 826.603 792.451C834.975 793.409 865.263 792.874 875.415 791.588C883.985 790.502 901.79 786.218 903.074 784.932C903.644 784.362 903.299 777.787 902.023 764.914C900.979 754.371 900.017 745.637 899.885 745.505C899.753 745.373 894.572 745.653 888.372 746.126C882.171 746.599 867.993 746.988 856.863 746.989C837.549 746.991 836.458 746.905 832.879 745.095C823.897 740.554 821.382 729.409 822.209 697.795C822.785 675.789 824.309 668.856 829.668 663.863C833.942 659.881 834.839 659.788 866.333 660.083L895.972 660.361L896.385 658.399C897.396 653.593 900.167 621.069 899.608 620.575C898.636 619.718 888.225 617.323 879.303 615.904C868.054 614.115 837.262 613.408 826.275 614.686C793.431 618.507 776.259 632.295 769.035 660.648C765.608 674.096 764.516 686.862 764.963 708.242C765.405 729.405 766.573 738.598 770.368 750.781Z" fill="white"/>
<path d="M970.957 791.543C974.892 792.072 979.248 792.661 980.637 792.85C985.181 793.47 1017.5 792.548 1025.25 791.577C1033.65 790.525 1051.61 786.232 1052.87 784.977C1053.38 784.466 1052.96 777.054 1051.71 764.667L1049.75 745.161L1046.34 745.632C1044.46 745.892 1030.53 746.357 1015.37 746.667C990.807 747.169 987.421 747.078 984.145 745.826C973.949 741.929 971.267 731.325 972.02 697.871C972.595 672.259 974.516 665.777 982.742 661.689C986.481 659.83 986.906 659.809 1016.15 660.083L1045.77 660.36L1046.23 657.556C1047.41 650.31 1049.93 620.998 1049.41 620.541C1048.47 619.717 1037.94 617.304 1029.14 615.897C1024.56 615.164 1012.64 614.404 1001.68 614.146C980.674 613.652 969.107 614.723 957.688 618.223C934.321 625.385 922.04 641.088 916.604 670.756C914.716 681.059 914.007 713.184 915.374 726.454C918.276 754.618 928.109 774 944.08 783.037C950.422 786.626 962.264 790.374 970.957 791.543Z" fill="white"/>
<path fill-rule="evenodd" clip-rule="evenodd" d="M339.621 795.882C339.621 795.092 347.87 765.61 373.689 674.126C386.102 630.143 386.693 628.675 393.417 625.123C397.1 623.177 397.345 623.163 427.166 623.163C456.848 623.163 457.249 623.185 460.849 625.091C467.964 628.856 468.361 629.778 478.904 666.987C505.911 762.31 515.246 795.875 514.858 796.263C514.623 796.499 502.198 796.691 487.246 796.691H460.061L459.249 793.532C458.802 791.794 456.819 783.26 454.841 774.566L451.245 758.759L403.319 759.205L394.708 796.27L367.165 796.492C349.442 796.635 339.621 796.417 339.621 795.882ZM437.669 700.194C440.226 711.162 442.318 720.302 442.318 720.506C442.318 720.71 435.512 720.877 427.193 720.877C415.459 720.877 412.149 720.641 412.433 719.824C414.721 713.228 423.799 668.946 423.799 664.378C423.799 663.948 425.307 663.596 427.15 663.596C428.437 663.596 429.259 663.54 429.84 663.888C430.968 664.561 431.191 666.753 432.149 673.82C432.628 677.358 435.112 689.227 437.669 700.194Z" fill="white"/>
</svg>
